<svg width="703" height="2247" viewBox="0 0 703 2247" fill="none" xmlns="http://www.w3.org/2000/svg">
<g clip-path="url(#clip0_1:5)">
<path d="M208.052 1786.63C213.793 1910.52 216.791 2090.76 219.049 2112.72C221.937 2140.8 289.021 2103.83 289.021 2103.83C289.021 2103.83 308.9 1947.84 320.029 1788.6C282.696 1788.36 245.385 1786.83 208.052 1786.63Z" fill="#F46C67"/>
<path d="M305.18 2081.4H210.212L206.083 2119.75C206.083 2119.75 170.987 2167.11 180.62 2189.81C190.255 2212.52 290.04 2210.79 298.299 2195.28C306.556 2179.76 305.18 2081.4 305.18 2081.4Z" fill="#E9E8E7"/>
<path d="M504.157 1783.64C498.416 1907.53 495.419 2087.77 493.16 2109.73C490.272 2137.81 423.188 2100.84 423.188 2100.84C423.188 2100.84 403.309 1944.85 392.18 1785.61C429.513 1785.37 466.824 1783.83 504.157 1783.64Z" fill="#F46C67"/>
<path d="M407.029 2078.41H501.997L506.127 2116.76C506.127 2116.76 541.223 2164.12 531.588 2186.83C521.953 2209.53 422.169 2207.8 413.912 2192.29C405.653 2176.77 407.029 2078.41 407.029 2078.41Z" fill="#E9E8E7"/>
<path d="M301.671 2156.19C301.671 2156.19 264.052 2072.83 188.019 2134.69L169.608 2179.57C169.608 2179.57 123.283 2201.79 123.283 2264.59H317.34C317.34 2264.59 317.34 2168.07 317.34 2149.48C317.34 2130.91 308.019 2105.53 305.265 2113.68C301.321 2125.37 301.671 2156.19 301.671 2156.19Z" fill="#778EA9" id="shoes"/>
<path d="M410.539 2153.2C410.539 2153.2 448.157 2069.83 524.191 2131.71L542.601 2176.59C542.601 2176.59 588.927 2198.8 588.927 2261.59H394.869C394.869 2261.59 394.869 2165.08 394.869 2146.49C394.869 2127.92 404.191 2102.53 406.944 2110.69C410.888 2122.39 410.539 2153.2 410.539 2153.2Z" fill="#778EA9" id="shoes"/>
<path d="M553.587 1044.61C540.419 980.934 473.421 850.081 473.421 850.081H239.563C239.563 850.081 172.567 980.934 159.397 1044.61C146.229 1108.3 168.087 1164.43 199.48 1183.95C230.875 1203.48 356.492 1205.92 356.492 1205.92C356.492 1205.92 482.111 1203.48 513.504 1183.95C544.899 1164.43 566.755 1108.3 553.587 1044.61Z" fill="#202B41" id="pant"/>
<path d="M253.868 1613.96C292.809 1613.96 337.543 1583.87 337.543 1549.51L352.049 1186.73C352.049 1152.37 290.568 1053.93 290.568 1053.93C251.251 1053.93 155.687 1052.39 155.687 1086.75L182.381 1551.48C182.381 1585.84 225.764 1613.96 253.868 1613.96Z" fill="#202B41" id="pant"/>
<path d="M262.264 1458.15C209.703 1458.15 182.001 1497.93 182.001 1536.12L200.605 1980.71C200.605 2018.91 320.029 2018.28 320.029 1980.08C320.029 1980.08 329.731 1799.12 331.52 1729.27C333.307 1659.41 339.815 1523.28 339.815 1523.28C339.815 1485.08 314.824 1458.15 262.264 1458.15Z" fill="#202B41" id="pant"/>
<path d="M458.341 1610.97C419.399 1610.97 374.667 1580.88 374.667 1546.52L360.16 1183.74C360.16 1149.38 421.64 1050.94 421.64 1050.94C460.959 1050.94 556.523 1049.4 556.523 1083.76L529.828 1548.49C529.828 1582.85 486.445 1610.97 458.341 1610.97Z" fill="#202B41" id="pant"/>
<path d="M449.945 1455.16C502.505 1455.16 530.208 1494.93 530.208 1533.13L511.604 1977.72C511.604 2015.92 392.18 2015.29 392.18 1977.09C392.18 1977.09 382.477 1796.13 380.689 1726.28C378.901 1656.43 372.395 1520.29 372.395 1520.29C372.395 1482.09 397.385 1455.16 449.945 1455.16Z" fill="#202B41" id="pant"/>
<path d="M227.821 1597.29C247.008 1607.92 270.089 1610.76 291.351 1605.51C297.36 1604.01 303.183 1601.85 308.729 1599.11C311.036 1597.96 309.012 1594.52 306.711 1595.65C288.103 1604.87 266.107 1606.51 246.224 1600.68C240.519 1599.01 235.04 1596.72 229.84 1593.84C227.585 1592.6 225.565 1596.05 227.821 1597.29Z" fill="#455069"/>
<path d="M309.749 1616.88C300.813 1617.69 291.879 1618.51 282.944 1619.32C280.401 1619.56 280.377 1623.56 282.944 1623.32C291.879 1622.51 300.813 1621.69 309.749 1620.88C312.291 1620.65 312.316 1616.65 309.749 1616.88Z" fill="#455069"/>
<path d="M382.733 1197.92C398.489 1190.87 414.245 1183.83 430.001 1176.79C432.347 1175.74 430.315 1172.29 427.983 1173.33C412.227 1180.38 396.471 1187.42 380.715 1194.46C378.369 1195.51 380.401 1198.96 382.733 1197.92Z" fill="#455069"/>
<path d="M386.052 1210.63C397.752 1211.3 409.451 1211.98 421.151 1212.65C423.723 1212.8 423.715 1208.8 421.151 1208.65C409.451 1207.98 397.752 1207.3 386.052 1206.63C383.48 1206.48 383.488 1210.48 386.052 1210.63Z" fill="#455069"/>
<path d="M354.415 1197.24C344.78 1184.85 335.145 1172.46 325.511 1160.08C323.932 1158.05 321.12 1160.9 322.683 1162.9C332.316 1175.29 341.951 1187.68 351.585 1200.06C353.164 1202.1 355.976 1199.25 354.415 1197.24Z" fill="#455069"/>
<path d="M357.068 1068.57C357.14 1082.45 357.211 1096.34 357.283 1110.22C357.317 1117.06 357.353 1123.89 357.389 1130.72C357.42 1136.87 356.699 1143.73 358.652 1149.66C360.517 1155.32 365.625 1159.92 371.863 1158.88C374.397 1158.46 373.323 1154.6 370.8 1155.02C365.589 1155.89 362.559 1150.07 361.835 1145.85C361.356 1143.05 361.437 1140.16 361.423 1137.33C361.407 1134.25 361.391 1131.16 361.375 1128.08C361.309 1115.4 361.244 1102.73 361.179 1090.06C361.141 1082.89 361.105 1075.73 361.068 1068.57C361.055 1065.99 357.055 1065.99 357.068 1068.57Z" fill="#455069"/>
<path d="M371.644 1078.91C371.644 1094.74 371.644 1110.57 371.644 1126.39C371.644 1128.97 375.644 1128.97 375.644 1126.39C375.644 1110.57 375.644 1094.74 375.644 1078.91C375.644 1076.34 371.644 1076.33 371.644 1078.91Z" fill="#455069"/>
<path d="M454.7 2185.92C454.171 2185.92 453.643 2185.71 453.249 2185.29C452.489 2184.49 452.523 2183.23 453.323 2182.47C473.767 2163.07 501.656 2151.76 529.841 2151.48C529.849 2151.48 529.856 2151.48 529.863 2151.48C530.959 2151.48 531.851 2152.36 531.863 2153.45C531.873 2154.56 530.988 2155.47 529.884 2155.48C502.696 2155.76 475.795 2166.65 456.077 2185.37C455.691 2185.73 455.195 2185.92 454.7 2185.92Z" fill="#1B1918"/>
<path d="M531.216 2179.77C530.769 2179.77 530.319 2179.63 529.947 2179.32C508.691 2161.84 481.9 2150.77 454.509 2148.15C453.411 2148.04 452.604 2147.07 452.709 2145.96C452.815 2144.87 453.804 2144.07 454.891 2144.16C483.065 2146.87 510.623 2158.25 532.487 2176.23C533.34 2176.93 533.463 2178.19 532.761 2179.04C532.367 2179.52 531.793 2179.77 531.216 2179.77Z" fill="#1B1918"/>
<path d="M451.671 2139.89C450.956 2139.89 450.265 2139.51 449.905 2138.84C449.384 2137.87 449.752 2136.65 450.725 2136.13C471.113 2125.23 495.8 2121.63 518.453 2126.24C519.535 2126.47 520.233 2127.52 520.013 2128.6C519.792 2129.69 518.741 2130.39 517.653 2130.16C495.896 2125.72 472.191 2129.19 452.612 2139.65C452.311 2139.81 451.988 2139.89 451.671 2139.89Z" fill="#1B1918"/>
<path d="M514.719 2143.17C514.28 2143.17 513.839 2143.03 513.471 2142.73C496.655 2129.28 470.365 2119.89 446.495 2118.84C445.391 2118.79 444.536 2117.85 444.585 2116.75C444.635 2115.65 445.571 2114.76 446.672 2114.84C471.335 2115.93 498.536 2125.65 515.969 2139.6C516.832 2140.29 516.972 2141.56 516.281 2142.41C515.887 2142.91 515.305 2143.17 514.719 2143.17Z" fill="#1B1918"/>
<path d="M401.26 1585.99C421.86 1603.47 451.665 1608.41 477.136 1599.8C484.291 1597.37 491.067 1593.92 497.141 1589.43C499.188 1587.91 497.196 1584.43 495.123 1585.96C474.461 1601.25 446.091 1603.89 422.455 1594.28C415.809 1591.57 409.557 1587.8 404.088 1583.15C402.137 1581.49 399.295 1584.31 401.26 1585.99Z" fill="#455069"/>
<path d="M317.149 481.067C282.268 436.827 265.66 420.721 265.66 420.721C265.66 420.721 307.18 410.921 352.049 410.921C396.917 410.921 438.439 420.721 438.439 420.721C438.439 420.721 421.831 436.827 386.948 481.067C372.96 498.814 331.139 498.814 317.149 481.067Z" fill="#F46C67"/>
<path d="M411.499 421.707L396.047 294.094H308.051L292.599 421.707C291.06 434.414 300.979 445.601 313.779 445.601H390.32C403.119 445.601 413.037 434.414 411.499 421.707Z" fill="#F46C67"/>
<path d="M308.051 294.094L296.268 391.401C333.111 409.507 373.869 398.108 405.193 369.628L396.047 294.094H308.051Z" fill="#1B1918"/>
<path d="M480.82 128.081C479.94 70.6274 399.979 26.5473 354.657 26.494L338.195 26.7474C292.895 28.1874 214.323 74.694 215.203 132.161C215.203 132.161 230.269 249.507 238.253 295.534C246.239 341.561 325.668 393.121 352.04 393.121C378.412 393.121 456.212 338.347 462.783 292.094C469.355 245.841 480.82 128.081 480.82 128.081Z" fill="#F46C67"/>
<path d="M238.661 292.534C228.444 286.241 218.148 279.881 209.535 272.081C200.921 264.254 194.001 254.774 192.001 244.534C189.999 234.281 189.611 221.614 202.84 217.001C213.941 213.147 237.231 237.374 237.231 237.374L238.661 292.534Z" fill="#F46C67"/>
<path d="M456.527 289.201C466.547 282.587 476.643 275.921 485.012 267.854C493.383 259.774 500.008 250.094 501.695 239.787C503.381 229.481 503.383 216.801 490.017 212.601C478.803 209.081 456.267 234.027 456.267 234.027L456.527 289.201Z" fill="#F46C67"/>
<path d="M352.563 279.241C353.331 278.908 355.195 278.014 355.36 276.961C355.525 275.908 351.299 275.681 349.217 275.134C347.136 274.588 345.012 273.321 344.727 271.121C344.371 268.374 346.977 265.788 347.38 262.961C347.408 262.774 347.423 262.588 347.428 262.388C346.249 260.054 343.729 260.761 342.307 262.281C341.365 263.281 340.82 264.574 340.389 265.868C339.447 268.668 338.933 271.641 339.476 274.374C340.02 277.121 341.749 279.574 344.329 280.414C346.916 281.268 349.804 280.428 352.563 279.241Z" fill="#AF4028"/>
<path d="M394.913 216.467C402.315 212.681 411.315 215.734 415.969 223.507C416.627 224.601 417.807 225.121 418.852 224.401C419.767 223.761 420.271 222.081 419.608 220.974C416.801 216.294 412.864 212.761 408.233 211.014C403.137 209.081 397.657 209.654 392.787 212.148C391.741 212.681 391.505 214.507 392.031 215.561C392.663 216.841 393.864 217.001 394.913 216.467Z" fill="#1B1918"/>
<path d="M307.179 216.681C299.832 212.788 290.789 215.721 286.027 223.414C285.352 224.508 284.165 225.014 283.131 224.268C282.224 223.628 281.744 221.934 282.423 220.841C285.296 216.201 289.281 212.721 293.936 211.041C299.06 209.174 304.531 209.828 309.367 212.388C310.404 212.934 310.613 214.761 310.073 215.814C309.424 217.094 308.22 217.228 307.179 216.681Z" fill="#1B1918"/>
<path d="M416.497 240.254C416.223 248.707 410.053 255.041 403.225 254.801C396.399 254.547 391.497 247.827 391.772 239.374C392.047 230.907 397.804 224.254 404.632 224.494C411.459 224.734 416.772 231.787 416.497 240.254Z" fill="#1B1918"/>
<path d="M286.107 238.761C285.832 247.214 290.485 254.548 297.313 254.801C304.141 255.041 310.557 248.094 310.832 239.641C311.107 231.174 305.793 224.121 298.967 223.881C292.139 223.641 286.381 230.308 286.107 238.761Z" fill="#1B1918"/>
<path d="M398.059 285.481C358.396 293.881 320.212 290.881 298.361 287.934C302.139 305.774 326.197 320.961 346.905 320.641C374.035 320.227 392.147 308.374 398.059 285.481Z" fill="white"/>
<path d="M500.245 146.828C506.123 146.241 511.301 140.508 510.4 134.428C509.275 126.828 506.123 119.787 501.372 114.054C504.553 113.067 507.375 110.721 508.684 107.734C511.28 101.814 508.304 95.6409 502.859 92.8009C496.839 89.6542 490.653 86.9208 484.295 84.5475C484.144 84.3475 484 84.134 483.845 83.9207C485.243 82.774 486.379 81.374 487.044 79.854C489.757 73.6673 486.489 68.0807 481.22 64.9207C474.44 60.8407 467.333 57.4141 460.007 54.5475C465.523 49.4408 466.396 39.3742 457.379 36.0675C447.127 32.2942 436.976 31.854 427.159 34.454C422.523 23.2273 415.112 13.3341 405.212 5.69414C397.783 -0.0258627 389.251 5.26748 387.22 12.1608C382.46 7.76081 376.887 4.24071 370.679 1.92071C364.952 -0.225967 358.299 1.92086 355.744 7.74753C355.404 8.52086 355.171 9.34737 355.028 10.1873C349.065 5.21404 341.92 1.77414 333.731 0.227471C327.104 -1.02586 322.804 3.08076 321.485 8.10742C310.087 4.60076 298.304 4.70758 286.551 8.00091C282.467 9.14758 279.893 13.1342 279.369 17.2675C273.16 17.7742 267.001 18.9474 260.863 20.774C254.137 22.7607 252.521 28.6674 254.177 33.8274C243.069 36.0141 232.963 40.974 228.216 51.3873C225.735 56.8407 227.775 61.5741 231.451 64.3608C219.587 69.4141 210.603 81.6008 210.113 94.5475C210.04 96.4808 210.316 98.3608 210.911 100.094C205.569 103.801 201.347 109.041 199.351 115.401C197.58 121.041 199.039 127.961 205.176 130.334C205.265 130.374 205.36 130.401 205.451 130.428C201.039 135.321 198.081 141.494 197.515 148.214C197 154.308 200.58 160.174 206.935 161.174C208.231 161.374 209.577 161.308 210.893 161.028C210.949 161.401 211.019 161.801 211.076 162.174C206.033 169.627 202.956 178.374 202.605 187.454C202.369 193.574 205.477 199.388 212.027 200.428C213.613 200.681 215.341 200.508 217.007 199.988C214.227 208.494 213.561 217.667 215.212 226.507C215.627 228.721 216.548 230.774 217.867 232.441C217.149 233.227 216.423 234.014 215.671 234.774C211.369 239.134 213.041 247.174 217.463 250.707C222.659 254.854 229.079 253.281 233.393 248.907C245.013 237.134 252.505 222.494 256.323 206.468C256.484 205.788 256.569 205.148 256.619 204.521C282.001 201.761 303.292 195.854 324.551 182.521C326.957 186.988 331.94 190.001 338.072 187.748C343.311 185.814 348.397 183.481 353.304 180.814C353.313 180.854 353.317 180.881 353.328 180.907C355.589 186.907 362.065 189.374 367.925 187.534C376.824 184.748 385.001 179.561 391.371 172.721C393.599 179.081 401.473 184.028 408.952 179.268C415.681 174.988 422.579 170.161 428.597 164.588C428.297 167.721 428.032 170.868 427.841 174.014C427.472 180.121 430.807 185.961 437.261 186.988C439.633 187.361 442.253 186.828 444.516 185.628C444.339 186.654 444.287 187.761 444.413 188.961C446.267 206.614 451.085 227.188 465.309 239.081C473.769 246.148 483.925 237.748 483.528 229.188C486.993 230.694 490.952 230.601 494.425 228.081C499.001 224.748 501.029 216.841 496.932 212.241C492.019 206.734 493.067 198.068 492.743 190.428C496.256 188.974 498.757 185.628 499.84 181.654C503.153 169.481 501.139 157.174 495.473 146.228C496.947 146.761 498.552 147.001 500.245 146.828Z" fill="#202B41"/>
<path d="M228.075 1075.47L252.651 1106C252.651 1106 217.967 1137.61 171.087 1149.19L160.956 1131.72C160.956 1131.72 167.284 1095.64 228.075 1075.47Z" fill="#F46C67"/>
<path d="M475.075 1075.47L450.499 1106C450.499 1106 485.183 1137.61 532.063 1149.19L542.193 1131.72C542.193 1131.72 535.865 1095.64 475.075 1075.47Z" fill="#F46C67"/>
<path d="M557.332 1015.81C541.911 936.854 574.86 472.214 568.879 465.361C556.207 450.854 449.597 414.921 426.875 414.921H282.849C260.127 414.921 153.516 450.854 140.844 465.361C134.863 472.214 167.832 936.547 152.48 1015.33C142.995 1064.01 566.809 1064.34 557.332 1015.81Z" fill="#F0451F" id="shirt"/>
<path d="M119.952 469.374C144.535 454.147 235.731 452.161 186.849 608.761C146.293 738.681 144.953 821.214 126.936 861.321C108.424 902.521 12.612 928.228 1.34536 869.948C-9.92184 811.668 73.3947 498.214 119.952 469.374Z" fill="#F0451F" id="shirt"/>
<path d="M10.4133 810.707C-5.92187 872.134 2.416 884.267 14.9853 915.001C27.5547 945.734 147.776 1142.77 147.776 1142.77L239.537 1065.86C239.537 1065.86 143.643 903.067 138.117 875.481C136.675 868.267 134.327 849.201 130.916 825.627C118.093 737.041 35.4453 716.587 10.4133 810.707Z" fill="#F0451F" id="shirt"/>
<path d="M583.197 469.374C558.613 454.147 467.419 452.161 516.3 608.761C556.856 738.681 558.196 821.214 576.213 861.321C594.725 902.521 690.537 928.228 701.804 869.948C713.071 811.668 629.755 498.214 583.197 469.374Z" fill="#F0451F" id="shirt"/>
<path d="M692.736 810.707C709.071 872.134 700.733 884.267 688.164 915.001C675.595 945.734 555.373 1142.77 555.373 1142.77L463.612 1065.86C463.612 1065.86 559.507 903.067 565.032 875.481C566.475 868.267 568.823 849.201 572.233 825.627C585.056 737.041 667.703 716.587 692.736 810.707Z" fill="#F0451F" id="shirt"/>
<path d="M557.556 777.494C558.529 749.814 559.503 722.121 560.477 694.428C561.447 666.841 562.416 639.268 563.385 611.681C563.935 596.068 564.484 580.441 565.032 564.828C565.123 562.254 561.123 562.254 561.032 564.828C560.059 592.521 559.085 620.214 558.112 647.907C557.143 675.481 556.173 703.067 555.204 730.641C554.655 746.267 554.105 761.881 553.556 777.494C553.467 780.081 557.467 780.068 557.556 777.494Z" fill="#B37E1D"/>
<path d="M156.795 818.841C155.757 786.281 154.721 753.707 153.684 721.134C152.651 688.667 151.619 656.201 150.585 623.748C150.003 605.468 149.421 587.174 148.84 568.907C148.759 566.334 144.757 566.321 144.84 568.907C145.876 601.481 146.913 634.041 147.949 666.614C148.983 699.081 150.016 731.547 151.049 764.001C151.631 782.281 152.212 800.561 152.795 818.841C152.876 821.414 156.876 821.427 156.795 818.841Z" fill="#B37E1D"/>
<path d="M571.351 841.387C580.327 837.681 589.304 833.961 598.28 830.254C599.285 829.841 599.977 828.934 599.677 827.787C599.428 826.841 598.215 825.987 597.217 826.401C588.24 830.107 579.264 833.814 570.287 837.534C569.281 837.947 568.591 838.854 568.889 839.987C569.139 840.934 570.353 841.801 571.351 841.387Z" fill="#B37E1D"/>
<path d="M131.077 845.054C121.785 844.027 112.495 843.014 103.203 841.987C102.12 841.881 101.213 843.001 101.203 843.987C101.191 845.174 102.133 845.881 103.203 845.987C112.495 847.014 121.785 848.027 131.077 849.054C132.16 849.174 133.067 848.041 133.077 847.054C133.089 845.881 132.147 845.174 131.077 845.054Z" fill="#B37E1D"/>
<path d="M193.816 2146.56C194.253 2146.56 194.695 2146.43 195.064 2146.12C211.879 2132.67 238.168 2123.29 262.039 2122.23C263.143 2122.19 263.997 2121.25 263.948 2120.15C263.9 2119.04 262.963 2118.15 261.863 2118.24C237.199 2119.33 209.999 2129.05 192.565 2143C191.703 2143.69 191.563 2144.95 192.252 2145.81C192.648 2146.31 193.229 2146.56 193.816 2146.56Z" fill="#1B1918"/>
<path d="M256.863 2143.29C257.577 2143.29 258.269 2142.91 258.629 2142.23C259.149 2141.25 258.783 2140.04 257.808 2139.52C237.42 2128.63 212.733 2125.01 190.081 2129.64C188.999 2129.87 188.3 2130.92 188.521 2132C188.741 2133.08 189.793 2133.79 190.88 2133.56C212.637 2129.12 236.343 2132.59 255.921 2143.05C256.223 2143.21 256.545 2143.29 256.863 2143.29Z" fill="#1B1918"/>
<path d="M174.204 2186.51C174.651 2186.51 175.101 2186.36 175.473 2186.05C196.729 2168.57 223.52 2157.51 250.911 2154.88C252.009 2154.77 252.816 2153.8 252.711 2152.69C252.605 2151.6 251.616 2150.8 250.529 2150.89C222.355 2153.6 194.797 2164.99 172.933 2182.96C172.08 2183.67 171.957 2184.92 172.659 2185.77C173.053 2186.25 173.627 2186.51 174.204 2186.51Z" fill="#1B1918"/>
<path d="M253.833 2189.31C254.363 2189.31 254.891 2189.11 255.284 2188.69C256.045 2187.89 256.012 2186.63 255.211 2185.87C234.768 2166.45 206.877 2155.16 178.692 2154.87C178.685 2154.87 178.677 2154.87 178.671 2154.87C177.576 2154.87 176.683 2155.76 176.671 2156.85C176.66 2157.96 177.547 2158.87 178.651 2158.87C205.837 2159.15 232.739 2170.05 252.457 2188.76C252.844 2189.13 253.339 2189.31 253.833 2189.31Z" fill="#1B1918"/>
</g>
<defs>
<clipPath id="clip0_1:5">
<rect width="703" height="2247" fill="white"/>
</clipPath>
</defs>
</svg>
