<svg width="193" height="497" viewBox="0 0 193 497" fill="none" xmlns="http://www.w3.org/2000/svg">
<path d="M178.336 465.964C178.336 465.964 184.979 465.169 186.423 476.019" stroke="#DAD8D6" stroke-width="1.03738" stroke-miterlimit="10"/>
<path d="M185.041 464.052C185.041 464.052 188.649 464.233 191.12 468.522" stroke="#DAD8D6" stroke-width="1.03738" stroke-miterlimit="10" stroke-linecap="round" stroke-linejoin="round"/>
<path d="M37.8027 430.416C37.8027 430.416 37.0573 467.677 21.0347 481.837C21.0347 481.837 22.3747 486.065 29.196 482.557C36.0173 479.048 45.9587 469.644 45.9587 469.644C45.9027 467.328 49.8013 430.828 49.8013 430.828L37.8027 430.416Z" fill="#F79395"/>
<path d="M21.0347 481.838C21.0347 481.838 5.00267 491.344 7.38667 495.692C9.77067 500.038 27.6787 492.908 36.9333 482.812L46.608 482.672L45.9587 469.644L21.0347 481.838Z" fill="#232238" id="girl-shoes"/>
<path d="M179.236 481.114C179.236 481.114 194.785 488.892 192.708 493.393C190.633 497.895 173.376 492.619 163.443 483.189L153.781 483.72L153.525 470.679L179.236 481.114Z" fill="#232238" id="girl-shoes"/>
<path d="M158.941 430.977C158.941 430.977 162.269 468.098 179.236 481.114C179.236 481.114 178.192 485.424 171.144 482.397C164.096 479.371 153.525 470.679 153.525 470.679C153.42 468.364 147.001 432.223 147.001 432.223L158.941 430.977Z" fill="#F79395"/>
<path d="M46.156 161.94C46.156 161.94 19.5 191.293 18.0893 238.071C16.68 284.849 24.6706 437.604 24.6706 437.604L75.4827 443.715C75.4827 443.715 67.4413 387.312 66.032 328.561C64.6213 269.808 68.2586 218.173 68.2586 218.173L70.9586 218.055C70.9586 218.055 96.5826 323.86 98.4626 332.321C100.343 340.781 115.853 443.715 115.853 443.715L180.247 440.424L141.443 314.931C141.443 314.931 128.219 244.813 123.484 227.507C117.263 204.771 94.34 161.94 94.34 161.94H46.156Z" fill="#304270" id="girl-pant"/>
<path d="M94.34 161.94H46.156V150.288H94.34V161.94Z" fill="#232238"/>
<path d="M73.5026 218.792L58.9906 216.863" stroke="#232238" stroke-width="1.38179" stroke-miterlimit="10"/>
<path d="M15.7882 124L0.756212 156.993C-0.243788 159.188 -0.254471 161.695 0.738862 163.892C5.09486 173.528 17.6989 200.523 26.1616 209.661L32.1375 197.5L20.5656 160.427L35.9175 132.905L15.7882 124Z" fill="#F79395"/>
<path d="M26.2853 212.148L40.144 182.051" stroke="#232238" stroke-width="1.38179" stroke-miterlimit="10"/>
<path d="M126.129 123L141.161 155.993C142.161 158.188 142.171 160.695 141.177 162.892C136.823 172.528 120.397 202.635 111.936 211.773L106 199.948L121.352 159.427L106 131.905L126.129 123Z" fill="#F79395"/>
<path d="M112.456 212.148L98.5959 182.051" stroke="#232238" stroke-width="1.38179" stroke-miterlimit="10"/>
<path d="M31.312 89.7694C31.312 89.7694 20.84 91.4094 9.84668 122.335C9.84668 122.335 27.0867 141.98 42.7227 141.58L31.312 89.7694Z" fill="white" id="girl-shirt"/>
<path d="M110.959 78.3507C110.959 78.3507 118.497 77.0854 125.312 93.296C132.129 109.505 141.751 126.745 141.751 126.745C141.751 126.745 124.629 141.189 105.525 140.583L99.6533 113.863L110.959 78.3507Z" fill="white" id="girl-shirt"/>
<path d="M46.156 83.2041L31.312 89.7694L38.7347 143.152C38.7347 143.152 37.592 148.576 46.156 150.288H96.6773C96.6773 150.288 104.376 148.004 105.525 140.583C106.676 133.16 110.959 78.3507 110.959 78.3507L96.6773 77.4361L46.156 83.2041Z" fill="white" id="girl-shirt"/>
<path d="M35.0186 113.863L38.4106 140.601" stroke="#CFCDCB" stroke-width="1.38179" stroke-miterlimit="10"/>
<path d="M109.187 111.751L105.525 140.601" stroke="#CFCDCB" stroke-width="1.38179" stroke-miterlimit="10"/>
<path d="M96.2933 24.7281C94.5133 10.9641 90.3439 6.47873 81.1613 2.90273C64.8853 -3.43593 56.0413 7.71875 56.0413 7.71875C56.0413 7.71875 45.8893 4.79203 43.808 28.3707C42.144 47.2254 36.7839 44.8441 36.0946 65.7721H70.8106H105.525C105.525 44.3467 99.5426 49.8454 96.2933 24.7281Z" fill="#232238"/>
<path d="M81.4573 80.592L78.776 56.6107C78.776 56.6107 76.008 59.4321 72.3333 60.1147C68.6613 60.7974 65.104 58.6494 65.0586 58.6227C65.0133 58.5974 62.0586 56.136 62.0586 56.136L60.4387 80.888C60.4387 81.1507 60.4107 81.4094 60.3693 81.6654L81.5147 81.2761C81.48 81.0521 81.4573 80.824 81.4573 80.592Z" fill="#F79395"/>
<path d="M60.3693 56.9733C60.3693 56.9733 65.992 68.8507 72.6893 67.296C79.6786 65.6707 79.6467 55.4707 79.6467 55.4707L60.3693 56.9733Z" fill="#232238"/>
<path d="M94.34 25.7667C94.34 39.0654 83.992 49.8454 71.2267 49.8454C58.4613 49.8454 48.1133 39.0654 48.1133 25.7667C48.1133 12.4694 58.4613 3.42268 71.2267 3.42268C83.992 3.42268 94.34 12.4694 94.34 25.7667Z" fill="#232238"/>
<path d="M90.3266 27.0054C90.3266 35.2961 89.1719 42.4507 88.0213 47.5281C86.8933 52.4987 83.7213 55.9721 79.2386 58.7694L78.4226 59.2774C73.6799 62.2374 67.552 62.3054 62.736 59.4547C57.8786 56.5801 54.4786 52.7881 53.4319 47.4534C51.5279 37.7521 51.3199 27.0054 51.3199 27.0054C51.3199 27.0054 49.5093 6.07872 70.5453 6.48405C91.58 6.89072 90.3266 27.0054 90.3266 27.0054Z" fill="#F79395"/>
<path d="M53.5734 46.1147C49.8574 49.2054 42.092 37.0374 45.6907 33.7401C49.2893 30.4427 52.0187 36.8974 52.0187 36.8974L52.5267 39.6334L53.5947 44.8147L53.8707 45.9774L53.5734 46.1147Z" fill="#F79395"/>
<path d="M47.3053 38.0414C47.3053 38.0414 48.8226 34.76 52.3506 40.5227" stroke="#232238" stroke-width="0.99716" stroke-miterlimit="10" stroke-linecap="round" stroke-linejoin="round"/>
<path d="M88.208 46.1147C91.9226 49.2054 99.6893 37.0374 96.0893 33.7401C92.492 30.4427 89.7626 36.8974 89.7626 36.8974L89.2546 39.6334L88.1866 44.8147L87.9106 45.9774L88.208 46.1147Z" fill="#F79395"/>
<path d="M94.476 38.0414C94.476 38.0414 92.96 34.76 89.4307 40.5227" stroke="#232238" stroke-width="0.99716" stroke-miterlimit="10" stroke-linecap="round" stroke-linejoin="round"/>
<path d="M51.5906 31.1786C51.5906 31.1786 60.0013 22.1547 58.0613 10.636C58.0613 10.636 51.8186 13.7774 50.1933 21.8854C48.5666 29.9934 51.5906 31.1786 51.5906 31.1786Z" fill="#232238"/>
<path d="M54.5946 14.024C54.5946 14.024 63.7933 30.3467 93.476 30.7067C93.476 30.7067 95.8279 5.71069 75.4559 3.76669C75.4559 3.76669 59.5626 2.55738 54.5946 14.024Z" fill="#232238"/>
<path d="M63.4413 35.1334C63.4413 36.2054 62.5733 37.0734 61.5026 37.0734C60.432 37.0734 59.5626 36.2054 59.5626 35.1334C59.5626 34.0627 60.432 33.1947 61.5026 33.1947C62.5733 33.1947 63.4413 34.0627 63.4413 35.1334Z" fill="#232238"/>
<path d="M81.3973 35.1334C81.3973 36.2054 80.5293 37.0734 79.4586 37.0734C78.3866 37.0734 77.5186 36.2054 77.5186 35.1334C77.5186 34.0627 78.3866 33.1947 79.4586 33.1947C80.5293 33.1947 81.3973 34.0627 81.3973 35.1334Z" fill="#232238"/>
<path d="M69.068 39.3587L69.072 41.9747C69.0733 42.6347 69.6533 43.1294 70.2733 42.9987L71.652 42.7067" stroke="#232238" stroke-width="0.976429" stroke-miterlimit="10" stroke-linecap="round" stroke-linejoin="round"/>
<path d="M63.3386 46.8387H76.6773C76.6773 46.8387 75.6213 50.1894 70.008 50.1894C65.3026 50.1894 63.3386 46.8387 63.3386 46.8387Z" fill="white"/>
<path d="M73.6506 28.6547L85.3773 31.6827C85.3773 31.6827 84.844 28.3934 80.0467 27.1988C75.2493 26.0041 73.6506 28.6547 73.6506 28.6547Z" fill="#232238"/>
<path d="M66.364 28.6547L54.6387 31.6827C54.6387 31.6827 55.172 28.3934 59.9693 27.1988C64.7653 26.0041 66.364 28.6547 66.364 28.6547Z" fill="#232238"/>
<path d="M63.784 74.9253L46.156 83.204C46.156 83.204 49.1893 94.356 71.652 93.2134C94.1147 92.072 96.6774 77.436 96.6774 77.436L73.6507 74.9253H63.784Z" fill="#F79395"/>
</svg>
